HIERARCHY
ROOT Hips
{
	OFFSET 0.000000 91.145912 0.000000
	CHANNELS 6 Xposition Yposition Zposition Xrotation Yrotation Zrotation
	JOINT RightUpLeg
	{
		OFFSET -7.978616 0.020706 -0.002301
		CHANNELS 6 Xposition Yposition Zposition Xrotation Yrotation Zrotation
		JOINT RightLeg
		{
			OFFSET 0.000000 -41.199947 -0.001895
			CHANNELS 6 Xposition Yposition Zposition Xrotation Yrotation Zrotation
			JOINT RightFoot
			{
				OFFSET 0.000000 -40.188824 -0.003193
				CHANNELS 6 Xposition Yposition Zposition Xrotation Yrotation Zrotation
				JOINT RightToeBase
				{
					OFFSET 0.000000 -7.939033 18.143217
					CHANNELS 6 Xposition Yposition Zposition Xrotation Yrotation Zrotation
					End Site
					{
						OFFSET 0.000000 19.804155 0.000000
					}
				}
			}
		}
	}
	JOINT LeftUpLeg
	{
		OFFSET 7.978616 0.018532 -0.002059
		CHANNELS 6 Xposition Yposition Zposition Xrotation Yrotation Zrotation
		JOINT LeftLeg
		{
			OFFSET 0.000000 -41.199947 -0.001895
			CHANNELS 6 Xposition Yposition Zposition Xrotation Yrotation Zrotation
			JOINT LeftFoot
			{
				OFFSET 0.000000 -40.188824 -0.003193
				CHANNELS 6 Xposition Yposition Zposition Xrotation Yrotation Zrotation
				JOINT LeftToeBase
				{
					OFFSET 0.000000 -7.939033 18.143217
					CHANNELS 6 Xposition Yposition Zposition Xrotation Yrotation Zrotation
					End Site
					{
						OFFSET 0.000000 19.804155 0.000000
					}
				}
			}
		}
	}
	JOINT Spine
	{
		OFFSET 0.000000 9.664871 -1.073875
		CHANNELS 6 Xposition Yposition Zposition Xrotation Yrotation Zrotation
		JOINT Spine1
		{
			OFFSET 0.000000 10.672615 0.000000
			CHANNELS 3 Xrotation Yrotation Zrotation
			JOINT Spine2
			{
				OFFSET 0.000000 9.745026 -0.008016
				CHANNELS 6 Xposition Yposition Zposition Xrotation Yrotation Zrotation
				JOINT Spine3
				{
					OFFSET 0.000000 9.734146 -0.008024
					CHANNELS 6 Xposition Yposition Zposition Xrotation Yrotation Zrotation
					JOINT LeftShoulder
					{
						OFFSET 2.982571 7.645615 0.000000
						CHANNELS 6 Xposition Yposition Zposition Xrotation Yrotation Zrotation
						JOINT LeftArm
						{
							OFFSET 14.068447 0.000000 0.000000
							CHANNELS 6 Xposition Yposition Zposition Xrotation Yrotation Zrotation
							JOINT LeftForeArm
							{
								OFFSET 30.140327 0.000000 0.000000
								CHANNELS 6 Xposition Yposition Zposition Xrotation Yrotation Zrotation
								JOINT LeftHand
								{
									OFFSET 24.636414 0.000000 0.000000
									CHANNELS 6 Xposition Yposition Zposition Xrotation Yrotation Zrotation
									End Site
									{
										OFFSET 0.000000 24.636414 0.000000
									}
								}
							}
						}
					}
					JOINT RightShoulder
					{
						OFFSET -2.982571 7.645615 0.000000
						CHANNELS 6 Xposition Yposition Zposition Xrotation Yrotation Zrotation
						JOINT RightArm
						{
							OFFSET -14.068447 0.000000 0.000000
							CHANNELS 6 Xposition Yposition Zposition Xrotation Yrotation Zrotation
							JOINT RightForeArm
							{
								OFFSET -30.140327 0.000000 0.000000
								CHANNELS 6 Xposition Yposition Zposition Xrotation Yrotation Zrotation
								JOINT RightHand
								{
									OFFSET -24.636414 0.000000 0.000000
									CHANNELS 6 Xposition Yposition Zposition Xrotation Yrotation Zrotation
									JOINT Prop1
									{
										OFFSET -9.043953 -1.004883 2.009767
										CHANNELS 6 Xposition Yposition Zposition Xrotation Yrotation Zrotation
										End Site
										{
											OFFSET 0.000000 9.318909 0.000000
										}
									}
								}
							}
						}
					}
					JOINT Neck
					{
						OFFSET 0.000000 13.630920 0.000000
						CHANNELS 6 Xposition Yposition Zposition Xrotation Yrotation Zrotation
						JOINT Head
						{
							OFFSET 0.000000 9.064621 0.017240
							CHANNELS 6 Xposition Yposition Zposition Xrotation Yrotation Zrotation
							End Site
							{
								OFFSET 2.350056 8.402847 -2.457058
							}
						}
					}
				}
			}
		}
	}
}
MOTION
Frames: 5
Frame Time: 0.008333
178.990250 71.986389 -156.951508 6.595001 -60.962273 8.996249 -7.978611 0.020705 -0.002309 -44.132195 -8.940942 -39.174731 -0.000002 -41.199932 -0.001901 64.386178 1.661015 -7.246506 -0.000012 -40.188835 -0.003189 -24.976178 4.717132 19.681656 -0.000000 -7.939033 18.143238 -0.000000 -0.000000 0.000001 7.978622 0.018525 -0.002054 -46.985882 13.990913 40.823549 -0.000020 -41.199947 -0.001892 56.996962 -1.427537 -1.519770 0.000014 -40.188828 -0.003200 -18.327740 -12.818505 -26.694176 -0.000005 -7.939033 18.143219 0.000000 -0.000000 -0.000000 0.000001 9.664870 -1.073863 11.586427 3.129200 -3.021702 -0.700133 1.586630 -1.108606 -0.000014 9.745040 -0.008013 5.120297 1.586744 -1.108445 0.000005 9.734133 -0.008033 9.674303 1.110125 -0.935686 2.982578 7.645608 -0.000001 -6.128491 0.501336 -7.454048 14.068452 0.000014 -0.000003 -27.933710 28.538055 -38.015426 30.140327 0.000002 0.000004 23.869863 -62.480255 4.033434 24.636402 0.000002 0.000002 14.495816 -3.960349 3.364333 -2.982574 7.645622 0.000010 -2.017227 -3.213482 1.035003 -14.068430 0.000003 -0.000004 -4.039158 -16.750969 67.493061 -30.140350 0.000002 -0.000002 9.703872 48.063570 -6.228299 -24.636410 0.000018 -0.000019 -3.234407 -7.442371 10.828091 -9.043934 -1.004901 2.009762 9.331553 1.703211 17.293395 -0.000001 13.630926 0.000003 14.015897 12.831705 -11.725352 0.000015 9.064636 0.017243 -0.025250 0.016348 -0.012664 
178.963257 71.873291 -156.956299 6.497757 -60.955115 8.966580 -7.978606 0.020714 -0.002312 -44.222039 -8.819340 -39.234840 -0.000008 -41.199951 -0.001894 64.713071 1.611008 -7.311387 -0.000005 -40.188831 -0.003191 -25.127964 4.703839 19.682802 0.000019 -7.939030 18.143225 -0.000000 0.000000 0.000001 7.978624 0.018531 -0.002055 -47.058193 13.955378 40.880291 -0.000005 -41.199940 -0.001880 57.232470 -1.467375 -1.516398 0.000005 -40.188828 -0.003181 -18.410821 -12.840487 -26.719475 -0.000006 -7.939034 18.143213 -0.000000 -0.000001 -0.000001 0.000012 9.664874 -1.073877 11.631270 3.100638 -3.031620 -0.680013 1.575030 -1.114642 0.000002 9.745022 -0.008016 5.140419 1.575143 -1.114478 0.000014 9.734141 -0.007997 9.689375 1.101100 -0.939363 2.982580 7.645618 -0.000009 -6.121150 0.517910 -7.483891 14.068445 0.000003 -0.000003 -27.911676 28.556775 -38.063603 30.140327 -0.000015 -0.000019 23.958027 -62.489346 4.089609 24.636429 -0.000003 0.000006 14.490108 -4.043985 3.384261 -2.982562 7.645618 -0.000020 -2.014581 -3.177210 0.998133 -14.068441 -0.000000 -0.000017 -4.024068 -16.711846 67.505294 -30.140327 0.000006 0.000000 9.686898 47.957811 -6.201030 -24.636414 0.000014 0.000023 -3.247455 -7.421718 10.890610 -9.043948 -1.004903 2.009756 9.317023 1.735088 17.317163 0.000005 13.630915 -0.000019 13.998540 12.835677 -11.723721 -0.000009 9.064623 0.017227 -0.055331 0.026261 -0.006608 
178.933853 71.763153 -156.962006 6.406597 -60.946509 8.941863 -7.978615 0.020689 -0.002293 -44.303592 -8.695562 -39.295052 -0.000010 -41.199959 -0.001914 65.030354 1.555557 -7.363275 -0.000033 -40.188828 -0.003170 -25.278614 4.694669 19.685906 -0.000019 -7.939036 18.143219 -0.000000 -0.000000 0.000000 7.978625 0.018522 -0.002055 -47.121793 13.913469 40.934881 0.000009 -41.199955 -0.001901 57.459089 -1.503947 -1.523133 -0.000011 -40.188820 -0.003175 -18.490951 -12.860570 -26.740477 0.000008 -7.939034 18.143225 -0.000000 0.000000 -0.000000 -0.000002 9.664861 -1.073874 11.671877 3.077797 -3.041801 -0.661825 1.565939 -1.120425 0.000004 9.745028 -0.008019 5.158604 1.566055 -1.120265 -0.000009 9.734138 -0.008029 9.702997 1.093949 -0.943024 2.982588 7.645612 -0.000016 -6.107587 0.523050 -7.510398 14.068461 -0.000017 -0.000024 -27.889235 28.573381 -38.110342 30.140327 -0.000001 0.000007 24.051485 -62.495821 4.151744 24.636412 0.000004 -0.000000 14.484717 -4.129307 3.403486 -2.982564 7.645612 -0.000013 -2.009796 -3.151595 0.960055 -14.068457 -0.000019 -0.000032 -4.006927 -16.669124 67.523455 -30.140327 -0.000005 -0.000015 9.672395 47.833638 -6.175527 -24.636414 0.000014 -0.000017 -3.264801 -7.392692 10.956003 -9.043979 -1.004882 2.009758 9.300045 1.772181 17.341726 0.000009 13.630914 -0.000025 13.981539 12.836097 -11.716488 0.000020 9.064609 0.017250 -0.082141 0.029010 0.009102 
178.900543 71.655495 -156.966003 6.300468 -60.941577 8.904140 -7.978630 0.020706 -0.002308 -44.382187 -8.582461 -39.360724 0.000014 -41.199947 -0.001898 65.346401 1.521842 -7.418891 -0.000009 -40.188828 -0.003189 -25.424027 4.679279 19.678934 -0.000002 -7.939036 18.143213 -0.000000 0.000000 -0.000000 7.978617 0.018525 -0.002068 -47.175608 13.880924 40.987706 0.000003 -41.199970 -0.001886 57.679527 -1.550076 -1.518896 -0.000003 -40.188824 -0.003187 -18.570869 -12.869425 -26.758275 0.000003 -7.939036 18.143240 -0.000001 0.000002 -0.000000 0.000014 9.664877 -1.073882 11.712498 3.058291 -3.051858 -0.643658 1.558311 -1.125925 -0.000003 9.745043 -0.008017 5.176773 1.558423 -1.125764 -0.000004 9.734164 -0.008031 9.716609 1.087918 -0.946573 2.982564 7.645618 -0.000005 -6.080929 0.528372 -7.537245 14.068454 -0.000000 0.000009 -27.881150 28.584506 -38.156220 30.140331 -0.000003 -0.000020 24.120892 -62.495029 4.194506 24.636389 0.000006 -0.000003 14.480242 -4.202806 3.426131 -2.982574 7.645619 -0.000001 -2.001521 -3.134068 0.920578 -14.068439 -0.000002 -0.000016 -3.993529 -16.641723 67.543174 -30.140327 -0.000016 -0.000006 9.666758 47.714855 -6.150493 -24.636431 0.000001 -0.000018 -3.273081 -7.377360 11.016205 -9.043963 -1.004887 2.009728 9.286924 1.798121 17.364653 0.000004 13.630914 -0.000021 13.967089 12.835145 -11.714430 -0.000008 9.064623 0.017252 -0.107482 0.029332 0.015248 
178.862396 71.550529 -156.967896 6.169504 -60.938155 8.845238 -7.978625 0.020704 -0.002275 -44.456216 -8.484036 -39.435439 -0.000004 -41.199955 -0.001915 65.662645 1.517481 -7.480474 -0.000006 -40.188835 -0.003220 -25.563767 4.653101 19.659504 -0.000014 -7.939035 18.143230 -0.000000 -0.000001 -0.000000 7.978625 0.018531 -0.002053 -47.217593 13.860073 41.038027 -0.000014 -41.199959 -0.001889 57.892301 -1.611324 -1.501471 0.000006 -40.188824 -0.003184 -18.649804 -12.864695 -26.772016 -0.000011 -7.939034 18.143234 -0.000000 0.000000 0.000000 0.000008 9.664873 -1.073860 11.754217 3.042978 -3.062298 -0.625049 1.552556 -1.131291 0.000000 9.745019 -0.007993 5.195382 1.552677 -1.131130 -0.000028 9.734152 -0.008036 9.730548 1.083301 -0.950152 2.982575 7.645616 -0.000001 -6.037596 0.531029 -7.564084 14.068442 0.000001 0.000007 -27.890534 28.586534 -38.200674 30.140335 -0.000001 -0.000034 24.160584 -62.486095 4.212845 24.636414 0.000015 -0.000022 14.475520 -4.265082 3.452829 -2.982579 7.645597 -0.000009 -1.988202 -3.131390 0.880920 -14.068460 -0.000006 0.000007 -3.986183 -16.633654 67.565577 -30.140324 -0.000005 0.000003 9.673885 47.604212 -6.127402 -24.636423 0.000012 -0.000042 -3.267840 -7.379373 11.073997 -9.043949 -1.004866 2.009748 9.277851 1.811855 17.385804 -0.000012 13.630909 -0.000010 13.954727 12.831269 -11.717082 -0.000004 9.064603 0.017273 -0.132174 0.024402 0.012676 
